<svg width="25" height="25" viewBox="0 0 25 25" fill="none" xmlns="http://www.w3.org/2000/svg">
<g id="&#240;&#159;&#166;&#134; icon &#34;circle facebook&#34;">
<path id="Vector" d="M12.4851 0C14.2133 0 15.8373 0.327771 17.357 0.983313C18.8766 1.63886 20.2026 2.53278 21.3349 3.66508C22.4672 4.79738 23.3611 6.11839 24.0167 7.62813C24.6722 9.13786 25 10.7569 25 12.4851C25 14.2133 24.6722 15.8373 24.0167 17.357C23.3611 18.8766 22.4672 20.2026 21.3349 21.3349C20.2026 22.4672 18.8766 23.3611 17.357 24.0167C15.8373 24.6722 14.2133 25 12.4851 25C10.7569 25 9.13786 24.6722 7.62813 24.0167C6.11839 23.3611 4.79738 22.4672 3.66508 21.3349C2.53278 20.2026 1.63886 18.8766 0.983313 17.357C0.327771 15.8373 0 14.2133 0 12.4851C0 10.7569 0.327771 9.13786 0.983313 7.62813C1.63886 6.11839 2.53278 4.79738 3.66508 3.66508C4.79738 2.53278 6.11839 1.63886 7.62813 0.983313C9.13786 0.327771 10.7569 0 12.4851 0ZM17.1931 5.45292H14.5411C14.0246 5.45292 13.5479 5.54231 13.1108 5.7211C12.6738 5.89988 12.2914 6.13826 11.9636 6.43623C11.6359 6.73421 11.3826 7.07191 11.2038 7.44934C11.025 7.82678 10.9356 8.20421 10.9356 8.58165V10.1609H8.58165V13.2598H10.9356V19.5173H14.0644V13.2598H16.3886V10.1609H14.0644V9.35638C14.0644 9.118 14.1587 8.92928 14.3474 8.79023C14.5362 8.65117 14.7 8.58165 14.8391 8.58165H17.1931V5.45292Z" fill="black"/>
</g>
</svg>
