<svg width="25" height="25" viewBox="0 0 25 25" fill="none" xmlns="http://www.w3.org/2000/svg">
<g id="&#240;&#159;&#166;&#134; icon &#34;circle instagram&#34;">
<path id="Vector" d="M12.3656 15.2628C11.9873 15.2628 11.6338 15.1932 11.3053 15.0538C10.9767 14.9144 10.688 14.7202 10.4391 14.4713C10.1902 14.2224 9.99602 13.9287 9.85663 13.5902C9.71724 13.2517 9.64755 12.8933 9.64755 12.5149C9.64755 12.1366 9.71724 11.7832 9.85663 11.4546C9.99602 11.126 10.1902 10.8373 10.4391 10.5884C10.688 10.3395 10.9767 10.1454 11.3053 10.006C11.6338 9.86659 11.9873 9.79689 12.3656 9.79689C13.1223 9.79689 13.7644 10.0607 14.2921 10.5884C14.8198 11.1161 15.0836 11.7583 15.0836 12.5149C15.0836 12.8933 15.0139 13.2517 14.8746 13.5902C14.7352 13.9287 14.541 14.2224 14.2921 14.4713C14.0432 14.7202 13.7545 14.9144 13.4259 15.0538C13.0974 15.1932 12.7439 15.2628 12.3656 15.2628ZM16.7264 12.5149C16.7264 12.3357 16.7164 12.1515 16.6965 11.9624C16.6766 11.7732 16.6468 11.599 16.6069 11.4397H17.8315V17.4433C17.8315 17.6025 17.7818 17.732 17.6822 17.8315C17.5826 17.9311 17.4532 17.9809 17.2939 17.9809H7.43728C7.27798 17.9809 7.14855 17.9311 7.04898 17.8315C6.94942 17.732 6.89964 17.6025 6.89964 17.4433V11.4397H8.12425C8.08443 11.599 8.05456 11.7732 8.03465 11.9624C8.01474 12.1515 8.00478 12.3357 8.00478 12.5149C8.00478 13.1123 8.11928 13.6798 8.34827 14.2174C8.57726 14.7551 8.8859 15.223 9.27419 15.6213C9.66249 16.0195 10.1254 16.3331 10.6631 16.5621C11.2007 16.7911 11.7682 16.9056 12.3656 16.9056C12.963 16.9056 13.5305 16.7911 14.0681 16.5621C14.6057 16.3331 15.0687 16.0195 15.457 15.6213C15.8453 15.223 16.1539 14.7551 16.3829 14.2174C16.6119 13.6798 16.7264 13.1123 16.7264 12.5149ZM12.4851 0C14.2174 0 15.8403 0.328554 17.3536 0.985663C18.867 1.64277 20.1912 2.53385 21.3262 3.6589C22.4612 4.78395 23.3572 6.10315 24.0143 7.61649C24.6714 9.12983 25 10.7527 25 12.4851C25 14.2174 24.6714 15.8403 24.0143 17.3536C23.3572 18.867 22.4612 20.1912 21.3262 21.3262C20.1912 22.4612 18.867 23.3572 17.3536 24.0143C15.8403 24.6714 14.2174 25 12.4851 25C10.7527 25 9.12983 24.6714 7.61649 24.0143C6.10315 23.3572 4.78395 22.4612 3.6589 21.3262C2.53385 20.1912 1.64277 18.867 0.985663 17.3536C0.328554 15.8403 0 14.2174 0 12.4851C0 10.7527 0.328554 9.12983 0.985663 7.61649C1.64277 6.10315 2.53385 4.78395 3.6589 3.6589C4.78395 2.53385 6.10315 1.64277 7.61649 0.985663C9.12983 0.328554 10.7527 0 12.4851 0ZM19.4743 7.04898C19.4743 6.591 19.315 6.20271 18.9964 5.88411C18.6778 5.56551 18.2895 5.40621 17.8315 5.40621H6.89964C6.44166 5.40621 6.05337 5.56551 5.73477 5.88411C5.41617 6.20271 5.25687 6.591 5.25687 7.04898V17.9809C5.25687 18.4389 5.41617 18.8272 5.73477 19.1458C6.05337 19.4644 6.44166 19.6237 6.89964 19.6237H17.8315C18.2895 19.6237 18.6778 19.4644 18.9964 19.1458C19.315 18.8272 19.4743 18.4389 19.4743 17.9809V7.04898ZM17.2939 7.04898C17.4532 7.04898 17.5826 7.10374 17.6822 7.21326C17.7818 7.32278 17.8315 7.45719 17.8315 7.61649V9.25926C17.8315 9.41856 17.7818 9.54799 17.6822 9.64755C17.5826 9.74711 17.4532 9.79689 17.2939 9.79689H15.6511C15.4918 9.79689 15.3574 9.74711 15.2479 9.64755C15.1384 9.54799 15.0836 9.41856 15.0836 9.25926V7.61649C15.0836 7.45719 15.1384 7.32278 15.2479 7.21326C15.3574 7.10374 15.4918 7.04898 15.6511 7.04898H17.2939Z" fill="black"/>
</g>
</svg>
