<svg width="25" height="25" viewBox="0 0 25 25" fill="none" xmlns="http://www.w3.org/2000/svg">
<g id="&#240;&#159;&#166;&#134; icon &#34;circle linkedin&#34;">
<path id="Vector" d="M12.4851 0C14.2174 0 15.8403 0.328554 17.3536 0.985663C18.867 1.64277 20.1912 2.53385 21.3262 3.6589C22.4612 4.78395 23.3572 6.10315 24.0143 7.61649C24.6714 9.12983 25 10.7527 25 12.4851C25 14.2174 24.6714 15.8403 24.0143 17.3536C23.3572 18.867 22.4612 20.1912 21.3262 21.3262C20.1912 22.4612 18.867 23.3572 17.3536 24.0143C15.8403 24.6714 14.2174 25 12.4851 25C10.7527 25 9.12983 24.6714 7.61649 24.0143C6.10315 23.3572 4.78395 22.4612 3.6589 21.3262C2.53385 20.1912 1.64277 18.867 0.985663 17.3536C0.328554 15.8403 0 14.2174 0 12.4851C0 10.7527 0.328554 9.12983 0.985663 7.61649C1.64277 6.10315 2.53385 4.78395 3.6589 3.6589C4.78395 2.53385 6.10315 1.64277 7.61649 0.985663C9.12983 0.328554 10.7527 0 12.4851 0ZM8.60215 9.37873H5.46595V19.534H8.60215V9.37873ZM7.01912 8.57228C7.45719 8.57228 7.83055 8.42294 8.13919 8.12425C8.44783 7.82557 8.60215 7.45719 8.60215 7.01912C8.60215 6.58104 8.44783 6.21266 8.13919 5.91398C7.83055 5.61529 7.45719 5.46595 7.01912 5.46595C6.58104 5.46595 6.21266 5.61529 5.91398 5.91398C5.61529 6.21266 5.46595 6.58104 5.46595 7.01912C5.46595 7.45719 5.61529 7.82557 5.91398 8.12425C6.21266 8.42294 6.58104 8.57228 7.01912 8.57228ZM19.534 13.6499C19.534 12.9331 19.3349 12.2312 18.9367 11.5442C18.5384 10.8572 18.0207 10.3345 17.3835 9.97611C16.8061 9.65751 16.134 9.48825 15.3674 9.46834C14.6008 9.44843 13.8988 9.57786 13.2616 9.85663V9.37873H10.1553V19.534H13.2616V13.3214L14.5759 12.6941C14.7352 12.6145 14.9492 12.5747 15.218 12.5747C15.4869 12.5747 15.7009 12.6245 15.8602 12.724C15.9797 12.7838 16.0992 12.9132 16.2186 13.1123C16.3381 13.3114 16.3979 13.4906 16.3979 13.6499V19.534H19.534V13.6499Z" fill="black"/>
</g>
</svg>
