<?xml version="1.0" encoding="UTF-8"?>
<svg id="Layer_1" data-name="Layer 1" xmlns="http://www.w3.org/2000/svg" viewBox="0 0 1576.79 482.43">
  <defs>
    <style>
      .cls-1 {
        fill: #099592;
      }

      .cls-2 {
        fill: #fefefe;
      }

      .cls-3 {
        fill: #0a9592;
      }
    </style>
  </defs>
  <path class="cls-1" d="M1426.44,198.25v-101.25h38.25v168h-32.25c-.61-1.95-2.45-4.04-3.77-5.61-25.4-30.11-49.71-63.08-75.75-92.25-1.07-1.2-2.31-2.63-3.73-3.4v101.25h-38.25V97h31.88l83.62,101.25Z"/>
  <polygon class="cls-3" points="972.69 97 972.69 163 1048.44 163 1048.44 97 1087.44 97 1087.44 265 1048.44 265 1048.44 196 972.69 196 972.69 265 933.69 265 933.69 97 972.69 97"/>
  <path class="cls-3" d="M897.69,246.62c-41.48,29.9-108.45,30.49-141.72-12.03-26.36-33.68-23.63-85.7,7.46-115.48,35.7-34.2,104.82-34.18,137.27,4.5l-24.03,21.78c-2.56,1.2-5.26-3.4-7.13-4.88-41.88-33.23-103.1-1.34-90.45,54.45,8.41,37.11,51.51,49.13,82.6,32.15v-48c0-.08,1.05-1.12,1.12-1.12h34.88v68.62Z"/>
  <path class="cls-1" d="M518.19,265h-40.12l-15.87-35.88-76.41-.18-15.35,36.06h-39.75l73.87-167.26c.54-.84,1.39-.68,2.21-.79,6.79-.85,27.76-.82,34.59,0,.83.1,1.64.01,2.22.78l74.62,167.26ZM449.94,199.75l-25.51-63.75-26.99,63.75h52.5Z"/>
  <path class="cls-1" d="M1105.44,265l74.35-167.9,37.8-.16,75.35,168.06h-40.5l-15.35-36.05-76.41.17-15.87,35.88h-39.38ZM1172.94,199.75h52.5l-25.88-63.75-26.62,63.75Z"/>
  <path class="cls-3" d="M102.69,125.5c-3.36,1.11-7.08.52-8.65-3.03-1.35-3.03,4.47-4.09,4.11-6.26-1.52-2.74-3.44-1.92-5.95-1.22l1.13-5.98c-5.41,6.44-4.42.46-5.75-.64-.76-.63-3.99.79-4.99-2.15-.78-2.32-.02-3.09,2.34-2.46.6.16.51,1.53,1.93,1.91,2.69.73,5.72-.83,6.46,1.82,2.22-3.51,2.52-6.85-.38-10.11l2.26-.39c.9-1.21-1.5-2.4-2.53-2.15-1.26.3-1.21,2.93-3.06,2.94-.76,0-4.22-2.35-4.56-3.04-.59-1.18.76-8.65.34-11.55-.78-5.38-3.94-5.09-.22-11.6,2.65-4.64,2.89-2.82,6.47-4.03,1.79-.6,8.7-4.05,9.54-.88.67,2.56-3.01,2.64-3.72,4.06l5.24.75c.29-1.36-1.26-.47-1.49-.74-1.25-1.47,1.4-1.5,1.41-1.82,0-.3-.58-.97-.55-1.6.13-2.84.16-3.41-.85-6.32l3.74,2.24c-1.84-6.45,2.87-6.34,4.57-10.06.7-1.55.5-3.58.8-4.06.7-1.11,6.91-.19,3.41-2.55-1.22-.82-6.45-4.4-3.55-6.22,2.7-1.7,7.03,5.08,10.52,4.89.18-4.34-3.9-2.25-5.99-4.88-.58-1.4,1.33-.92,1.51-1.61.51-2.06-1.39-3.84,2.24-3.27,0-1.42-2.23-.57-2.27-2.58-.03-1.61,3.29-4.68,1.52-7.91,20.06-2.44,39.84.18,58.48,7.9,2.23.92,14.7,6.68,15.42,7.83.49.77.39,1.43.35,2.27-2.34-.02-1.09-1.8-4.18-2.18-4.14-.5-2.52,2.02-5.56.69v3.74s3.74-1.5,3.74-1.5c-.76,5.83,4.98,3.36,7.41,7.22,2.57,4.1,2.45,9.82.09,13.95-.74,1.28-4.57,2.02-.69,4.66s8.98.6,7.45,8.67l-6.75-.75-.38,2.26c-3.32-3.48-5.46-.71-6.61-.87-1.04-.14-4.43-3.74-7.15-2.04-1.04.65-1.14,9.94-.84,11.5.47,2.45,4.86,4.25,3.73,7.89-1.9,2.01-12.12-6.36-13.27-6.62-.97-.22-8.76.03-9.78.45-1.58.65-2.39,2.51-3.54,3.2-3.19,1.92-7.22,2.59-10.9,2.23.89,2.33,5.75,2.98,7.5,1.86.91-.58.67-2.34,2.64-2.66,8.14-1.35,4.55,13.52,1.77,17.2-.94.55-17.91-7.91-19.41-6.65-.3,1.66,1.09,2.02,2.21,2.66,2.71,1.55,9.43,4.19,12.49,4.76.82.15,6.24.83,6.56.74,1.63-.47,2.69-5.84,4.23-4.42.8,3.16,3.07,6.32,3.58,9.55.63,3.99-.4,8.03,1.52,11.98,2.18,4.5,8.4,4.44,9.2,10.3.25,1.85-.44,4.01.12,5.88.47,1.6,2.86,2.37,3.43,4.07.3.91,1.51,5.71,1.63,6.62.71,5.17.04,11.15-6.17,11.48l-11.53-8.02c-9.95-2.75-7.3-10.1-16.75-13.99-1.42-.59-3.39-.3-4.73-1.08-.98-.57-1.53-3.27-3.29-3.68-.43-.1-6.63.79-6.99.99-.95.55-1.68,3.61-2.66,4.84-.28.36-4.33,4.23-4.62,4.38-4.15,2.14-10.02-.63-14.45-.96-.99-3.08-5.06-5.06-6.07-7.43-1.63-3.83-.32-6.14-.68-9-.46-3.6-2.47-2.72-1.5-9.43,3.5-1.16,6.91-12.23,10.73-11.17,1.02.28,1.54,2.01,3.16,2.19.46.05,7.58-1.97,7.87-2.27.35-.37-1.33-2.52-.45-3.77.56-.8,11.15-4.42,9.09-8.95-2.46-5.41-5.1,1.15-7.56,1.5s-3.97-1.76-6.33-1.52c-.84,3.41,1.67,1.76,2.15,2.31.2.23.2,2.82.1,2.93-.5.52-11.66-3.15-14.24-.74l7,.86c3.52,4.1.59,2.17-1.36,2.11-2.58-.08-5.22-.04-7.79.14.26,1.8-2,3.19-2.18,4.1-.3,1.52,1.31,6.35,1.23,8.2-.06,1.34-1.18,2.52-1.4,4.09ZM92.94,77.5c-2.93-2.18-1.62,6.8-1.34,7.72.86,2.88,5.24.91,5.85,8.4.08.96-1.67,4.7,1.11,4.12.77-.16,3.08-3.27,3.27-4.3.06-.32.09-6.21.01-6.53-.28-1.14-2.14-.83-2.16-1.55-.03-1.44,3.24-3.22,2.26-4.11-2.54-2.3-1.69,4.12-5.45,2.84-3.31-1.13-3.07-6.24-3.55-6.6ZM128.85,92.41c2.2-3.88-3.85-2.11-4.62-2.29-.99-.23-1.42-1.79-2.78-1.37l.74,3.74-4.51.39c.55,1.63,1.32,5.66,3.39,5.66,2.19-.25,1.94-2.85,3.43-4.11.76-.64,4.15-1.67,4.35-2.02Z"/>
  <path class="cls-3" d="M575.19,233.5h84v31.5h-123V97h37.88c.08,0,1.12,1.05,1.12,1.12v135.38Z"/>
  <path class="cls-3" d="M68.86,274.64c-.16.22-1.41.37-2.06,1.31-6.62,9.49,8.95,23.93,15.64,29.94,1.75,1.57,4,3.26,6,4.5-4.75-6.51-24.71-22.9-19.53-31.55,3.97-6.64,11.88,4.89,15.04,7.56,22.03,18.67,52.05,23.78,61.11,54.39,5.08,17.19,1.28,57.43.37,76.82-.15,3.27.73,11.03-.09,13.41-.91,2.65-45.04,20.77-50.54,24.47-1.71.5-1.13-1.38-.92-2.42,6-29.14,18.15-58.78,21.48-88.78.52-4.64,1.54-9.81-.75-14.06-6.22-11.51-32.65-24.23-43-33.5-7.29-6.52-7.74-15.12-11.75-23.5-2.22-4.64-5.55-8.16-7.53-12.72-2.5-5.75-3.95-12.06-6.72-18.03-3.64-7.84-12.13-18.21-14.31-25.44-.61-2.03-.78-3.69-.58-5.79,7.07.48,13.12,6.88,17.63,11.99,2.77,3.14,21.84,29.6,20.53,31.4Z"/>
  <path class="cls-3" d="M210.69,417.99l-51.63-24.49c-.43-4.45.12-8.96-.09-13.41-.99-21.04-3.36-47.51-1.56-68.25,3.26-37.6,42.5-43.7,65.65-64.85,2.66-2.43,7.53-11.76,11.99-5.98,4.14,5.35-2.41,12.78-5.63,16.84-4.81,6.06-10.98,11.13-15.71,17.28,1.66-.58,3.55-2.19,4.88-3.36,5.01-4.42,19.19-18.55,20.43-24.56.48-2.31.35-6.46-.98-8.43-.85-1.27-2.41-1.4-2.54-1.6-.79-1.11,10.42-18.07,12.09-20.41,4.63-6.5,15.02-19.94,22.4-22.61,2.31-.83,3.75-.59,3.76,2.19,0,5.4-12.63,23.42-15.69,30.13-2.52,5.54-3.74,11.25-5.97,16.53-2.1,4.96-5.94,9.12-8.28,14.22-3.84,8.38-3.85,15.75-11.42,22.33-11.97,10.4-28.99,17.4-40.08,29.67-5.28,5.84-4.07,10.39-3.26,17.55,3.43,30.42,15.16,61.34,21.65,91.22Z"/>
  <rect class="cls-3" x="1504.44" y="97" width="39" height="168"/>
  <path class="cls-3" d="M848.19,367.75v-51.75h20.25v87h-17.25c-.61-1.95-2.45-4.04-3.77-5.61-13.11-15.54-25.73-31.49-38.98-46.89v52.5h-20.25v-87h16.88l43.12,51.75Z"/>
  <path class="cls-1" d="M1327.44,316c.29.18,2.87,4.54,3.77,5.61,13.09,15.55,25.59,31.61,38.98,46.89v-52.5h19.5v87h-16.12c-15-17.16-28.62-35.66-43.88-52.5v52.5h-19.5v-87c2.73.58,16.01-.78,17.25,0Z"/>
  <path class="cls-1" d="M888.69,403v-87h47.62c10.48,0,25.43,8.76,31.86,16.89,21.01,26.58,1.44,70.11-32.61,70.11h-46.88ZM908.94,386.5h24.38c3.79,0,13.35-5.04,16.12-7.88,8.89-9.13,9.19-28.01.76-37.49-3.09-3.47-12.33-8.63-16.87-8.63h-24.38v54Z"/>
  <path class="cls-3" d="M1239.53,314.7c32.68-3.69,61.18,19.68,54.58,53.83-9.39,48.59-85.95,47.83-94.08-1.26-4.27-25.83,13.43-49.64,39.49-52.58ZM1242.51,331.94c-29.54,4-29.96,50.31-.61,54.97,42.54,6.75,43.32-60.76.61-54.97Z"/>
  <path class="cls-3" d="M620.03,314.7c32.68-3.69,61.18,19.68,54.58,53.83-9.39,48.59-85.95,47.83-94.08-1.26-4.27-25.83,13.43-49.64,39.49-52.58ZM623.01,331.94c-29.54,4-29.96,50.31-.61,54.97,42.54,6.75,43.32-60.76.61-54.97Z"/>
  <path class="cls-3" d="M710.19,316v54.38c0,2.88,3.43,10.25,5.63,12.37,6.13,5.9,20.23,5.96,26.57.33,2.15-1.91,6.05-9.34,6.05-11.95v-55.12h20.25v55.12c0,37.97-61.97,46.06-75.57,12.57-.73-1.79-3.18-8.91-3.18-10.32v-57.38h20.25Z"/>
  <path class="cls-3" d="M980.94,403l37.87-86.26c2.2-1.95,15.79-.04,19.54-.8l39.34,87.06h-21l-7.42-18.28c-13.1-1.09-26.76-.13-40.07-.49l-8.38,18.78h-19.88ZM1015.44,369.25h27l-13.87-33-13.13,33Z"/>
  <path class="cls-1" d="M571.44,316v15.75h-44.62c-.08,0-1.12,1.05-1.12,1.12v22.12h40.5v16.5h-40.5v31.5h-20.25v-87h66Z"/>
  <polygon class="cls-3" points="1153.44 316 1153.44 332.5 1125.69 332.5 1125.69 403 1105.44 403 1105.44 332.5 1077.69 332.5 1077.69 316 1153.44 316"/>
  <path class="cls-3" d="M64.44,137.5c-2.53.49-1.1,1.08-2.5,3.11-1.08,1.57-2.45,2.82-3.5,4.38l7.5,1.51c.34.28-1,4.02-1.89,4.49-1.61.85-.6-1.86-1.86-1.49-1.28,2.3-.69,5.34-1,7.02-.34,1.84-2.14,5.72-1.8,7.67.14.8,1.82.72,2.06,1.58.69,2.52-1.33,5.71-.67,7.94.54,1.84,4.78,2.79,4.39,4.65-1.56,2.39-3.04-.22-4.92-.36-3.94-.29-4.57,3.38-6.31,5.64-.59.77-1.96,1.05-2.59,1.91-3.62,4.94,1.78,14.09,7.08,10.83,2.84-1.74.73-6.82,3.37-8.62,1.66,1.34,2.68,3.06,2.63,5.24,2.15.3,2.99-3.06,4.88-3.04,2.12.02,2.32,4.89,5.89,3.71.88-.29,1.07-1.66,1.78-2.19.77-.57,2.77-1.25,3.02-1.65.65-1.08,0-3.87,1.35-5.77,1.15-1.6,5.49-3.98,7.26-5.28,5.13-3.78,3.39-2.32,9.23-4.48,1.97-.73,3.83-2.82,6.04-3.03,2.64-.26,3.89,1.79,6.47,1.37,4.84-.8,10.99-7.87,15.78-6.5,3.32.95,1.46,5.9,2.19,8.35.33,1.1,2.22,2.32,3,3.75,3.69,6.73-1.08,8.22-.95,12.93.06,2.21,1.9,3.07,2.19,4.64s-.58,2.78-.58,4.25c0,2.63,2.12,4.49-1.55,6.83,5.35,2.39.44,5.22.16,6.83-.04.24-.12,4.46-.04,4.69.04.11,1.36-.01,1.79,1.53s.12,5.15.32,5.34c.31.3,3.09-.42,3.68.07,1.51,1.24-1.41,8.89,6.82,6.68,1.26,3.65-7.32,5.52-9.26,5.27-.47-.06-.42-1.2-1.07-1.46-.9-.35-3.48-.34-3.83-.92-.4-.67.25-2.33-.19-2.82-.24-.27-1.51.11-1.95-.21-.84-.61-.47-2.74-1.15-3.42-.4-.4-1.77-.33-2.42-.91-4.04-3.64-4.72-6-7.57-9.71-1.55-2.01-8.04-10.82-9.49-11.52-3.05-1.47-4.57,1-7.69,1.02-2.89.02-5.63-1.75-8.44-2.14-1.3-.18-2.8.97-3.94.26-.28-.17-3.27-5.18-3.41-5.64-.91-3.1.83-7.13-3.76-8.25-1.6-.39-.64,1.85-2.78,3.14-3.79,2.29-6.04.05-8.82.88-5.15,1.53-7.59,4.54-11.29,6.76-5.44,3.27-8.68,2.16-12.67-2.21-11.34-12.41-19.69-39.7-21.01-56.26-.37-4.67,2.29-1.19,2.27-3.74-.01-2.34-1.91-2.65-2.27-4.49-.49-2.51.31-5.96-.02-8.62,3.84.9,9.35-2.14,12.47-2.25,1.87-.07,2.76,1.83,5.1,1.52,1.72-.23,2.76-2.18,4.56-2.28.36.01,1.6,3.43.41,4.16-1.29.8-3.61-.61-3.03,1.85,4.02-.88,2.03,1.49,4.5,2.62-1.78,3.7-5.62,2.8-7.74,4.08-.63.38-1.88,3.71-3.51,2.29-.79-.69,1.97-2.9,1.98-4.12,0-.62-1.49-3.51-1.98-3.81-.24-.15-5.31-.26-5.58-.19-.84.22-.83,1.49-1.41,1.93-.91.68-3.51-.44-1.67,2.47,1.56,2.46,5.15-.89,1.91,6.72h4.5c-.95,1.58-2.86,1.32-2.25,3.75l-2.99-2.25c-.1,3.19-2.07,7.86-1.53,10.86,1.02,5.6,12.26-1.82,14.65-1.82,1.53,0,3.03,1.92,4.87,1.45-.91-1.71-1.26-6.48-1.86-7.51-.88-1.52-7.4-2.32-5.1-7.28s9.81-.79,10.71-1.7c-1.23-7.07,4.34-2.38,7.9-2.21,3.8.19,5.49-2.7,7.1,2.21,2.14-.41,4.56-.67,6.75-.75.41,1.44-2.11,2.74-3.07,3.29-.82.48-1.48,1.22-2.54,1.2-1.7-.87-.82-2.77-1.14-3.75Z"/>
  <rect class="cls-3" x="1163.94" y="316" width="20.25" height="87"/>
  <path class="cls-3" d="M55.97,88.27c1.38,1.52,2.96,4.73,4.22,6.23,1.12,1.34,3.85,1.27,4.28,3.64.57,3.13-1.53,4.53-2.12,6.9-.35,1.42.06,2.94-.2,4.3-.22,1.19-1.35,2.04-1.47,3.09-.33,2.95,4.39,6.11,2.68,8.62-2.33,3.41-16.4.48-14.68-6.04-2.7-.72-.36,3.66-3.36,2.25-1.3-.61-1.02-2.9-1.14-3.01-.09-.09-1.46.84-2.44.63-1.27-.27-2.05-1.9-4.68-2.16-7.2-.7-6.68,4.98-12.37,6.03-1.77-3.01.2-4.42.56-6.55.76-4.46-.06-10.71,6.18-10.7l-.76-2.24h2.99c.33-1.29-1.54-.37-1.55-1.17-.06-4.22,9.81-14.24,14.08-15.24,1.64-.39.86,1.77,2.47,2.16.25-2.23,1.8-4.21,3.75-5.25-.91,5.52.9,5.61,3.53,8.52ZM45.32,113.5v.75c.49-.25.49-.5,0-.75Z"/>
  <path class="cls-3" d="M242.19,154.75c-4.65,27.36-20.72,52.73-42.82,69.29-2.19,1.64-8.75,6.58-10.92,7.15-1.08.29-1.32-2.3-3.26-1.45-.51-1.88,1.59-1.7,2.05-2.44,1.22-1.95,2.57-7.6,3.41-9.72.52-1.31,3.15-8.03,3.46-8.36.79-.84,2.1-.36,3.06-.85,2.61-1.36,4.98-6.17,6.41-7.86,1.34-1.58,4.92-2.4,6.71-5.29,1.01-1.64,1.43-5.25,2.08-5.8.73-.61,3.25-.41,4.01-1.66.5-.83-.54-2.51-.32-3.94.25-1.6,1.9-3.01,2.45-4.38.7-1.73.35-3.47,1.58-5.18,1.81-2.52,2.87-.32,4.81-1.11,1.79-.73,4.48-4.37,6.1-5.22s5.69-.89,6.37-1.88c1.15-1.67-.56-10.95,4.82-11.29Z"/>
  <path class="cls-3" d="M79.44,276.24c-1.9-.07-3.23-1.48-5.05-2.08-1.18-.39-3.08.17-3.83-.29s-7.33-13.2-7.98-14.89c-1.59-4.12-7.35-27.75-4.11-29.97,5.87.32,8.42,6,10.6,10.73,1.83,3.96,11.66,35.11,10.37,36.5Z"/>
  <path class="cls-3" d="M233.81,236.36c-1.18.76-7.12.43-8.85,3.14-1.33-1.84,8.45-33.08,10.36-37.26,1.11-2.43,8.87-16.65,11.23-8.71,1.4,4.69-2.89,23.45-4.96,28.48-.68,1.65-7.09,13.91-7.77,14.35Z"/>
  <path class="cls-3" d="M92.19,289c-2.87-1.87-7.64-4.7-9.04-7.83-2.8-6.24-8.05-26.93-9.36-34.14-.23-1.26-.49-2.49-.33-3.78,4.47.6,7,4.4,8.61,8.25,4.64,11.07,6.53,25.85,10.12,37.49Z"/>
  <path class="cls-3" d="M230.94,206.5l-9.91,37.7c-.49,1.17-8.47,7.74-8.82,7.29,3.8-11.49,5.5-26.58,10.12-37.49,1.52-3.6,4.15-7.91,8.62-7.5Z"/>
  <path class="cls-3" d="M102.69,295.74c-12.33-3.8-10.8-19.01-14.24-29.24,4.66,1.63,6.99,6.87,8.89,10.98,2.61,5.64,4.62,12.08,5.35,18.26Z"/>
  <path class="cls-3" d="M215.94,229l-6.01,24.17-8.23,5.07c-1-1.12,4.27-15.9,5.35-18.26,1.81-3.93,4.51-9.46,8.89-10.98Z"/>
  <path class="cls-3" d="M242.19,113.49l-8.92-7.19c-6.3-5.38.32-13.12-1.56-20.55,5.91,7.81,7.99,18.41,10.49,27.75Z"/>
  <path class="cls-3" d="M211.44,91.74c-5.04.48-9.21-3.07-14.26-3.36-2.15-4.09,2.79-1.4,4.51-2.26l-6-4.12c3.28-.25,6.13-.16,8.29,2.61.5.64.03,1.74.69,2.23,2.8,2.07,6.52-1.63,6.77,4.9Z"/>
  <path class="cls-3" d="M212.08,73.12c1.42,3.46,8.59,11.34.44,11.86-6.83.44-2.28-7.9-3.32-11.99l2.88.13Z"/>
  <path class="cls-3" d="M188.94,146.49c-7.06.45-8.95-8.65-8.24-14.24,1.69-.23,1.94-.03,2.89,1.22,1.07,1.4,6.25,12.12,5.35,13.02Z"/>
  <path class="cls-3" d="M102.69,38.5c.24,4.39-3.88,6.65-.77,10.9.71.97,4.54,2.55,3.02,4.1-.17.17-4.15.18-4.75.03-1.89-.45-3.27-8.54-1.41-10.32l3.91-4.71Z"/>
  <path class="cls-3" d="M74.18,97.75c.14.1.82,2.79.77,3.35-.29,3.31-7.86,4.26-5.47.46.76-1.21,3.08-4.89,4.7-3.81Z"/>
  <path class="cls-3" d="M218.34,75.87c.1.26,3.83,2.8,4.35,3.5-2.04.59-2.64,0-2.25,2.63-3.65-2.54-6.62-5.81-1.86-9,1.15.57-.46,2.27-.23,2.87Z"/>
  <path class="cls-3" d="M84.33,109c2.15-.46,3.77,5.5,1.48,5.99-2.15.46-3.77-5.5-1.48-5.99Z"/>
  <path class="cls-3" d="M219.69,87.25c-.32,1.53-6.78,5.24-7.5,4.49-1.95-2.03,5.77-5.57,7.5-4.49Z"/>
  <path class="cls-3" d="M73.44,178c2.21,2.51-6.57,4.11-8.25,4.49.19-1.97,7.83-4.96,8.25-4.49Z"/>
  <path class="cls-3" d="M204.54,60.45c.25.16.37,1.34.9,1.65,1.43.83,3.5-.53,3,1.89-5.61,2.15-7.68-5.91-3.9-3.55Z"/>
  <polygon class="cls-3" points="215.2 69.24 211.45 69.24 213.33 65.5 215.2 69.24"/>
  <path class="cls-3" d="M80.19,174.25c.82.79-2.86,4.23-3.74,4.5-.53-2.77,1.05-4.38,3.74-4.5Z"/>
  <path class="cls-3" d="M64.82,183.25c.49.25.49.5,0,.75v-.75Z"/>
  <path class="cls-2" d="M45.32,113.5c.49.25.49.5,0,.75v-.75Z"/>
</svg>