<svg width="25" height="25" viewBox="0 0 25 25" fill="none" xmlns="http://www.w3.org/2000/svg">
<g id="&#240;&#159;&#166;&#134; icon &#34;circle tumblr&#34;">
<path id="Vector" d="M12.5149 0C14.2473 0 15.8702 0.328554 17.3835 0.985663C18.8969 1.64277 20.216 2.53385 21.3411 3.6589C22.4661 4.78395 23.3572 6.10315 24.0143 7.61649C24.6714 9.12983 25 10.7527 25 12.4851C25 14.2174 24.6714 15.8403 24.0143 17.3536C23.3572 18.867 22.4661 20.1912 21.3411 21.3262C20.216 22.4612 18.8969 23.3572 17.3835 24.0143C15.8702 24.6714 14.2473 25 12.5149 25C10.7826 25 9.1597 24.6714 7.64636 24.0143C6.13301 23.3572 4.80884 22.4612 3.67384 21.3262C2.53883 20.1912 1.64277 18.867 0.985663 17.3536C0.328554 15.8403 0 14.2174 0 12.4851C0 10.7527 0.328554 9.12983 0.985663 7.61649C1.64277 6.10315 2.53883 4.78395 3.67384 3.6589C4.80884 2.53385 6.13301 1.64277 7.64636 0.985663C9.1597 0.328554 10.7826 0 12.5149 0ZM17.1744 16.5472C16.4178 17.0052 15.671 17.2342 14.9343 17.2342C14.5161 17.2342 14.1477 17.1446 13.8292 16.9654C13.5703 16.8061 13.3911 16.597 13.2915 16.3381C13.2517 16.2186 13.2417 16.0394 13.2616 15.8005C13.2816 15.5615 13.2915 15.233 13.2915 14.8148V10.9319H16.3979V8.57228H13.2915V5.46595H11.0215C10.9419 6.16288 10.7726 6.76025 10.5137 7.25806C10.2549 7.73596 9.91637 8.13421 9.49821 8.45281C9.27917 8.63202 9.01533 8.78136 8.70669 8.90084C8.39805 9.02031 8.10434 9.12983 7.82557 9.22939V10.9319H10.1553V16.1589C10.1553 16.6766 10.1852 17.1296 10.2449 17.5179C10.3047 17.9062 10.5038 18.2597 10.8423 18.5783C11.0016 18.7376 11.1957 18.872 11.4247 18.9815C11.6537 19.091 11.8977 19.1856 12.1565 19.2652C12.4353 19.3648 12.6892 19.4345 12.9182 19.4743C13.1472 19.5141 13.4309 19.534 13.7694 19.534C14.3668 19.534 14.9243 19.4743 15.4421 19.3548C15.7208 19.2951 15.9996 19.2155 16.2784 19.1159C16.5571 19.0163 16.8558 18.8969 17.1744 18.7575V16.5472Z" fill="black"/>
</g>
</svg>
