<svg width="25" height="25" viewBox="0 0 25 25" fill="none" xmlns="http://www.w3.org/2000/svg">
<g id="&#240;&#159;&#166;&#134; icon &#34;circle youtube&#34;">
<path id="Vector" d="M18.0406 15.2628C18.1999 15.2628 18.3094 15.3126 18.3692 15.4122C18.4488 15.4918 18.4886 15.6312 18.4886 15.8303V16.3381H17.5926V15.8303C17.5926 15.6511 17.6225 15.5117 17.6822 15.4122C17.7818 15.3126 17.9012 15.2628 18.0406 15.2628ZM14.546 15.2628C14.6854 15.2628 14.7849 15.3027 14.8447 15.3823C14.9243 15.462 14.9642 15.5814 14.9642 15.7407V18.2497C14.9642 18.409 14.9343 18.5185 14.8746 18.5783C14.8148 18.6579 14.7252 18.6977 14.6057 18.6977C14.5261 18.6977 14.4464 18.6778 14.3668 18.638C14.2672 18.5982 14.1876 18.5384 14.1278 18.4588V15.4421C14.2075 15.3624 14.2772 15.3126 14.3369 15.2927C14.3767 15.2728 14.4464 15.2628 14.546 15.2628ZM12.5149 0C14.2473 0 15.8702 0.328554 17.3835 0.985663C18.8969 1.64277 20.216 2.53385 21.3411 3.6589C22.4661 4.78395 23.3572 6.10315 24.0143 7.61649C24.6714 9.12983 25 10.7527 25 12.4851C25 14.2174 24.6714 15.8403 24.0143 17.3536C23.3572 18.867 22.4661 20.1912 21.3411 21.3262C20.216 22.4612 18.8969 23.3572 17.3835 24.0143C15.8702 24.6714 14.2473 25 12.5149 25C10.7826 25 9.1597 24.6714 7.64636 24.0143C6.13301 23.3572 4.80884 22.4612 3.67384 21.3262C2.53883 20.1912 1.64277 18.867 0.985663 17.3536C0.328554 15.8403 0 14.2174 0 12.4851C0 10.7527 0.328554 9.12983 0.985663 7.61649C1.64277 6.10315 2.53883 4.78395 3.67384 3.6589C4.80884 2.53385 6.13301 1.64277 7.64636 0.985663C9.1597 0.328554 10.7826 0 12.5149 0ZM8.99044 12.8136H5.46595V13.7694H6.66069V19.3847H7.7957V13.7694H8.99044V12.8136ZM9.02031 9.70729L10.5137 5.46595H9.19952L8.42294 8.3632H8.33333L7.49701 5.46595H6.21266L7.73596 9.82676V12.6941H9.02031V9.70729ZM12.3357 14.546H11.3202V18.2198C11.2804 18.2796 11.2306 18.3294 11.1708 18.3692L10.9916 18.4886C10.8722 18.5484 10.7826 18.5783 10.7228 18.5783C10.6233 18.5783 10.5536 18.5583 10.5137 18.5185C10.4739 18.4787 10.454 18.3891 10.454 18.2497V14.546H9.43847V18.6081C9.43847 18.8869 9.49821 19.096 9.61768 19.2354C9.73716 19.3947 9.90641 19.4743 10.1254 19.4743C10.3047 19.4743 10.5038 19.4146 10.7228 19.2951C10.902 19.2155 11.1012 19.0661 11.3202 18.8471V19.3847H12.3357V14.546ZM12.2461 12.8136C12.7838 12.8136 13.192 12.6842 13.4707 12.4253C13.7694 12.1864 13.9188 11.828 13.9188 11.3501V8.60215C13.9188 8.22381 13.7694 7.89526 13.4707 7.61649C13.192 7.35763 12.8037 7.2282 12.3059 7.2282C11.7881 7.2282 11.3799 7.34767 11.0812 7.58662C10.7626 7.82557 10.6033 8.15412 10.6033 8.57228V11.3501C10.6033 11.808 10.7527 12.1665 11.0514 12.4253C11.3301 12.6842 11.7284 12.8136 12.2461 12.8136ZM16.0096 15.7109C16.0096 15.3126 15.92 15.004 15.7407 14.7849C15.6014 14.5858 15.3624 14.4863 15.0239 14.4863C14.8447 14.4863 14.6854 14.5261 14.546 14.6057C14.3867 14.6655 14.2473 14.775 14.1278 14.9343V12.8136H13.0824V19.3847H14.1278V19.0263C14.1876 19.1059 14.2523 19.1706 14.322 19.2204C14.3917 19.2702 14.4663 19.315 14.546 19.3548C14.6854 19.4146 14.8646 19.4444 15.0836 19.4444C15.3823 19.4444 15.6113 19.3548 15.7706 19.1756C15.9299 18.9765 16.0096 18.7176 16.0096 18.399V15.7109ZM15.6511 12.7539C15.8901 12.7539 16.1091 12.7041 16.3082 12.6045C16.5074 12.505 16.7264 12.3357 16.9654 12.0968V12.6941H18.1004V7.34767H16.9654V11.4098C16.8857 11.5094 16.7662 11.6089 16.6069 11.7085C16.4875 11.7682 16.3879 11.7981 16.3082 11.7981C16.1689 11.7981 16.0892 11.7682 16.0693 11.7085C16.0096 11.6487 15.9797 11.5591 15.9797 11.4397V7.34767H14.8447V11.828C14.8447 12.1466 14.9144 12.3755 15.0538 12.5149C15.1533 12.6742 15.3524 12.7539 15.6511 12.7539ZM19.534 15.8602C19.534 15.3823 19.4046 15.0239 19.1458 14.7849C18.9068 14.546 18.5484 14.4265 18.0705 14.4265C17.6125 14.4265 17.2441 14.556 16.9654 14.8148C16.6866 15.0936 16.5472 15.4421 16.5472 15.8602V18.0108C16.5472 18.4886 16.6766 18.857 16.9355 19.1159C17.2143 19.3947 17.5727 19.534 18.0108 19.534C18.5086 19.534 18.8869 19.4046 19.1458 19.1458C19.4046 18.9068 19.534 18.5285 19.534 18.0108V17.7718H18.4886V17.9809C18.4886 18.2796 18.4588 18.4687 18.399 18.5484C18.3194 18.628 18.1999 18.6679 18.0406 18.6679C17.8415 18.6679 17.722 18.6181 17.6822 18.5185C17.6225 18.4389 17.5926 18.2597 17.5926 17.9809V17.0848H19.534V15.8602ZM12.2461 8.15412C12.3855 8.15412 12.5149 8.18399 12.6344 8.24373C12.7141 8.32338 12.7539 8.42294 12.7539 8.54241V11.4397C12.7539 11.599 12.7141 11.7085 12.6344 11.7682C12.5548 11.8479 12.4253 11.8877 12.2461 11.8877C12.0868 11.8877 11.9773 11.8479 11.9176 11.7682C11.818 11.7085 11.7682 11.599 11.7682 11.4397V8.54241C11.7682 8.44285 11.818 8.34329 11.9176 8.24373C11.9972 8.18399 12.1067 8.15412 12.2461 8.15412Z" fill="black"/>
</g>
</svg>
